<?xml version="1.0" encoding="UTF-8" standalone="no"?>
<!DOCTYPE svg PUBLIC "-//W3C//DTD SVG 1.1//EN"
 "http://www.w3.org/Graphics/SVG/1.1/DTD/svg11.dtd">
<!-- Generated by graphviz version 15.1.0 (20260618.0150)
 -->
<!-- Title: top Pages: 1 -->
<svg width="4207pt" height="644pt"
 viewBox="0.00 0.00 4207.00 644.00" xmlns="http://www.w3.org/2000/svg" xmlns:xlink="http://www.w3.org/1999/xlink">
<g id="graph0" class="graph" transform="scale(1 1) rotate(0) translate(4 640.2)">
<title>top</title>
<polygon fill="white" stroke="none" points="-4,4 -4,-640.2 4203.37,-640.2 4203.37,4 -4,4"/>
<text xml:space="preserve" text-anchor="middle" x="2099.69" y="-7.2" font-family="Times,serif" font-size="14.00">top</text>
<!-- n2 -->
<g id="node1" class="node">
<title>n2</title>
<polygon fill="none" stroke="black" points="2945.57,-428.5 2869.33,-410.5 2945.57,-392.5 3021.81,-410.5 2945.57,-428.5"/>
<text xml:space="preserve" text-anchor="middle" x="2945.57" y="-405.45" font-family="Times,serif" font-size="14.00">alu_zero_w</text>
</g>
<!-- n3 -->
<g id="node2" class="node">
<title>n3</title>
<polygon fill="none" stroke="black" points="2945.57,-520.5 2862.81,-502.5 2945.57,-484.5 3028.32,-502.5 2945.57,-520.5"/>
<text xml:space="preserve" text-anchor="middle" x="2945.57" y="-497.45" font-family="Times,serif" font-size="14.00">alu_result_w</text>
</g>
<!-- c42 -->
<g id="node28" class="node">
<title>c42</title>
<polygon fill="none" stroke="black" points="3064.32,-207.75 3064.32,-379.25 3641.07,-379.25 3641.07,-207.75 3064.32,-207.75"/>
<text xml:space="preserve" text-anchor="middle" x="3107.2" y="-361.95" font-family="Times,serif" font-size="14.00">clk</text>
<polyline fill="none" stroke="black" points="3064.32,-354.75 3150.07,-354.75"/>
<text xml:space="preserve" text-anchor="middle" x="3107.2" y="-337.45" font-family="Times,serif" font-size="14.00">read_addr1</text>
<polyline fill="none" stroke="black" points="3064.32,-330.25 3150.07,-330.25"/>
<text xml:space="preserve" text-anchor="middle" x="3107.2" y="-312.95" font-family="Times,serif" font-size="14.00">read_addr2</text>
<polyline fill="none" stroke="black" points="3064.32,-305.75 3150.07,-305.75"/>
<text xml:space="preserve" text-anchor="middle" x="3107.2" y="-288.45" font-family="Times,serif" font-size="14.00">reset</text>
<polyline fill="none" stroke="black" points="3064.32,-281.25 3150.07,-281.25"/>
<text xml:space="preserve" text-anchor="middle" x="3107.2" y="-263.95" font-family="Times,serif" font-size="14.00">write_addr</text>
<polyline fill="none" stroke="black" points="3064.32,-256.75 3150.07,-256.75"/>
<text xml:space="preserve" text-anchor="middle" x="3107.2" y="-239.45" font-family="Times,serif" font-size="14.00">write_data</text>
<polyline fill="none" stroke="black" points="3064.32,-232.25 3150.07,-232.25"/>
<text xml:space="preserve" text-anchor="middle" x="3107.2" y="-214.95" font-family="Times,serif" font-size="14.00">write_enable</text>
<polyline fill="none" stroke="black" points="3150.07,-207.75 3150.07,-379.25"/>
<text xml:space="preserve" text-anchor="middle" x="3357.95" y="-298.57" font-family="Times,serif" font-size="14.00">u_register_file</text>
<text xml:space="preserve" text-anchor="middle" x="3357.95" y="-282.07" font-family="Times,serif" font-size="14.00">$paramod$adeecc208996d0b92f0acb5ec38d57453fb9dd41╲register_file</text>
<polyline fill="none" stroke="black" points="3565.82,-207.75 3565.82,-379.25"/>
<text xml:space="preserve" text-anchor="middle" x="3603.45" y="-331.45" font-family="Times,serif" font-size="14.00">read_data1</text>
<polyline fill="none" stroke="black" points="3565.82,-293.75 3641.07,-293.75"/>
<text xml:space="preserve" text-anchor="middle" x="3603.45" y="-245.95" font-family="Times,serif" font-size="14.00">read_data2</text>
</g>
<!-- n3&#45;&gt;c42 -->
<g id="edge37" class="edge">
<title>n3:e&#45;&gt;c42:w</title>
<path fill="none" stroke="black" stroke-width="3" d="M3028.32,-502.5C3081.91,-502.5 3017.52,-281.38 3053.59,-248.55"/>
<polygon fill="black" stroke="black" stroke-width="3" points="3051.96,-252.91 3060.07,-246.1 3049.48,-246.36 3051.96,-252.91"/>
</g>
<!-- x4 -->
<g id="node36" class="node">
<title>x4</title>
<ellipse fill="black" stroke="black" cx="3352.7" cy="-502.5" rx="1.8" ry="1.8"/>
</g>
<!-- n3&#45;&gt;x4 -->
<g id="edge38" class="edge">
<title>n3:e&#45;&gt;x4:w</title>
<path fill="none" stroke="black" stroke-width="3" d="M3028.32,-502.5C3167.13,-502.5 3204.68,-502.5 3337.95,-502.5"/>
<polygon fill="black" stroke="black" stroke-width="3" points="3334.88,-506 3344.88,-502.5 3334.88,-499 3334.88,-506"/>
</g>
<!-- n4 -->
<g id="node3" class="node">
<title>n4</title>
<polygon fill="none" stroke="black" points="4125.08,-305.5 4064.76,-287.5 4125.08,-269.5 4185.4,-287.5 4125.08,-305.5"/>
<text xml:space="preserve" text-anchor="middle" x="4125.08" y="-282.45" font-family="Times,serif" font-size="14.00">alu_b_w</text>
</g>
<!-- c31 -->
<g id="node25" class="node">
<title>c31</title>
<polygon fill="none" stroke="black" points="2213.31,-447.75 2213.31,-521.25 2768.31,-521.25 2768.31,-447.75 2213.31,-447.75"/>
<text xml:space="preserve" text-anchor="middle" x="2240.81" y="-503.95" font-family="Times,serif" font-size="14.00">A</text>
<polyline fill="none" stroke="black" points="2213.31,-496.75 2268.31,-496.75"/>
<text xml:space="preserve" text-anchor="middle" x="2240.81" y="-479.45" font-family="Times,serif" font-size="14.00">B</text>
<polyline fill="none" stroke="black" points="2213.31,-472.25 2268.31,-472.25"/>
<text xml:space="preserve" text-anchor="middle" x="2240.81" y="-454.95" font-family="Times,serif" font-size="14.00">opcode</text>
<polyline fill="none" stroke="black" points="2268.31,-447.75 2268.31,-521.25"/>
<text xml:space="preserve" text-anchor="middle" x="2493.06" y="-489.57" font-family="Times,serif" font-size="14.00">u_alu</text>
<text xml:space="preserve" text-anchor="middle" x="2493.06" y="-473.07" font-family="Times,serif" font-size="14.00">$paramod╲alu╲DATA_WIDTH=s32&#39;00000000000000000000000000001000</text>
<polyline fill="none" stroke="black" points="2717.81,-447.75 2717.81,-521.25"/>
<text xml:space="preserve" text-anchor="middle" x="2743.06" y="-497.95" font-family="Times,serif" font-size="14.00">Result</text>
<polyline fill="none" stroke="black" points="2717.81,-484.75 2768.31,-484.75"/>
<text xml:space="preserve" text-anchor="middle" x="2743.06" y="-461.45" font-family="Times,serif" font-size="14.00">Zero</text>
</g>
<!-- n4&#45;&gt;c31 -->
<g id="edge40" class="edge">
<title>n4:e&#45;&gt;c31:w</title>
<path fill="none" stroke="black" stroke-width="3" d="M4187.9,-287.5C4254.45,-287.5 4007.21,-456.5 3940.66,-456.5 3351.7,-456.5 3351.7,-456.5 3351.7,-456.5 3134.25,-456.5 3073.66,-422.34 2862.81,-475.5 2817.47,-486.93 2813.87,-511.2 2768.31,-521.75 2528,-577.4 2390.06,-693.81 2213.31,-521.75 2205.15,-513.81 2199.91,-499.18 2202.81,-490.81"/>
<polygon fill="black" stroke="black" stroke-width="3" points="2202.14,-495.46 2208.53,-487.01 2198.26,-489.63 2202.14,-495.46"/>
</g>
<!-- n5 -->
<g id="node4" class="node">
<title>n5</title>
<polygon fill="none" stroke="black" points="3765.62,-264.5 3677.07,-246.5 3765.62,-228.5 3854.16,-246.5 3765.62,-264.5"/>
<text xml:space="preserve" text-anchor="middle" x="3765.62" y="-241.45" font-family="Times,serif" font-size="14.00">read_data2_w</text>
</g>
<!-- c34 -->
<g id="node26" class="node">
<title>c34</title>
<polygon fill="none" stroke="black" points="3890.16,-132.75 3890.16,-206.25 3989.16,-206.25 3989.16,-132.75 3890.16,-132.75"/>
<text xml:space="preserve" text-anchor="middle" x="3903.04" y="-188.95" font-family="Times,serif" font-size="14.00">A</text>
<polyline fill="none" stroke="black" points="3890.16,-181.75 3915.91,-181.75"/>
<text xml:space="preserve" text-anchor="middle" x="3903.04" y="-164.45" font-family="Times,serif" font-size="14.00">B</text>
<polyline fill="none" stroke="black" points="3890.16,-157.25 3915.91,-157.25"/>
<text xml:space="preserve" text-anchor="middle" x="3903.04" y="-139.95" font-family="Times,serif" font-size="14.00">S</text>
<polyline fill="none" stroke="black" points="3915.91,-132.75 3915.91,-206.25"/>
<text xml:space="preserve" text-anchor="middle" x="3939.66" y="-172.7" font-family="Times,serif" font-size="14.00">$75</text>
<text xml:space="preserve" text-anchor="middle" x="3939.66" y="-156.2" font-family="Times,serif" font-size="14.00">$mux</text>
<polyline fill="none" stroke="black" points="3963.41,-132.75 3963.41,-206.25"/>
<text xml:space="preserve" text-anchor="middle" x="3976.29" y="-164.45" font-family="Times,serif" font-size="14.00">Y</text>
</g>
<!-- n5&#45;&gt;c34 -->
<g id="edge42" class="edge">
<title>n5:e&#45;&gt;c34:w</title>
<path fill="none" stroke="black" stroke-width="3" d="M3854.16,-246.5C3877.81,-246.5 3867.31,-209.81 3879.75,-197.78"/>
<polygon fill="black" stroke="black" stroke-width="3" points="3877.69,-202.25 3885.89,-195.55 3875.3,-195.67 3877.69,-202.25"/>
</g>
<!-- n6 -->
<g id="node5" class="node">
<title>n6</title>
<polygon fill="none" stroke="black" points="3765.62,-574.5 3677.07,-556.5 3765.62,-538.5 3854.16,-556.5 3765.62,-574.5"/>
<text xml:space="preserve" text-anchor="middle" x="3765.62" y="-551.45" font-family="Times,serif" font-size="14.00">read_data1_w</text>
</g>
<!-- n6&#45;&gt;c31 -->
<g id="edge44" class="edge">
<title>n6:e&#45;&gt;c31:w</title>
<path fill="none" stroke="black" stroke-width="3" d="M3857.37,-556.5C3865.38,-556.5 3862.19,-568.99 3856.37,-574.5 3798.48,-629.26 3756.75,-575.94 3677.07,-574.5 3351.63,-568.64 2448.28,-746.99 2213.31,-521.75 2212.8,-521.26 2212.31,-520.69 2211.86,-520.07"/>
<polygon fill="black" stroke="black" stroke-width="3" points="2215.21,-523.67 2212.12,-513.54 2208.22,-523.38 2215.21,-523.67"/>
</g>
<!-- n7 -->
<g id="node6" class="node">
<title>n7</title>
<polygon fill="none" stroke="black" points="2025.92,-83.5 1933.03,-65.5 2025.92,-47.5 2118.81,-65.5 2025.92,-83.5"/>
<text xml:space="preserve" text-anchor="middle" x="2025.92" y="-60.45" font-family="Times,serif" font-size="14.00">imm_select_w</text>
</g>
<!-- n7&#45;&gt;c34 -->
<g id="edge46" class="edge">
<title>n7:e&#45;&gt;c34:w</title>
<path fill="none" stroke="black" d="M2118.81,-65.5C2141.76,-65.5 2921.61,-34.5 2944.57,-34.5 2944.57,-34.5 2944.57,-34.5 3353.7,-34.5 3579.69,-34.5 3644.53,-40.06 3854.16,-124.5 3866.84,-129.61 3870.39,-138.42 3878.9,-142.63"/>
<polygon fill="black" stroke="black" points="3878.18,-146.06 3888.68,-144.69 3879.61,-139.21 3878.18,-146.06"/>
</g>
<!-- n8 -->
<g id="node7" class="node">
<title>n8</title>
<polygon fill="none" stroke="black" points="1601.16,-503.5 1534.33,-485.5 1601.16,-467.5 1667.99,-485.5 1601.16,-503.5"/>
<text xml:space="preserve" text-anchor="middle" x="1601.16" y="-480.45" font-family="Times,serif" font-size="14.00">alu_op_w</text>
</g>
<!-- n8&#45;&gt;c31 -->
<g id="edge48" class="edge">
<title>n8:e&#45;&gt;c31:w</title>
<path fill="none" stroke="black" stroke-width="3" d="M1670.65,-485.5C1907.77,-485.5 1969.34,-460.82 2200.8,-460.02"/>
<polygon fill="black" stroke="black" stroke-width="3" points="2197.78,-463.52 2207.77,-460.01 2197.76,-456.52 2197.78,-463.52"/>
</g>
<!-- n9 -->
<g id="node8" class="node">
<title>n9</title>
<polygon fill="none" stroke="black" points="359.44,-466.5 308.53,-448.5 359.44,-430.5 410.34,-448.5 359.44,-466.5"/>
<text xml:space="preserve" text-anchor="middle" x="359.44" y="-443.45" font-family="Times,serif" font-size="14.00">halt_w</text>
</g>
<!-- x3 -->
<g id="node35" class="node">
<title>x3</title>
<ellipse fill="black" stroke="black" cx="787.24" cy="-448.5" rx="1.8" ry="1.8"/>
</g>
<!-- n9&#45;&gt;x3 -->
<g id="edge50" class="edge">
<title>n9:e&#45;&gt;x3:w</title>
<path fill="none" stroke="black" d="M412.61,-448.5C573.79,-448.5 616.92,-448.5 772.56,-448.5"/>
<polygon fill="black" stroke="black" points="772.45,-452 782.45,-448.5 772.45,-445 772.45,-452"/>
</g>
<!-- n10 -->
<g id="node9" class="node">
<title>n10</title>
<polygon fill="none" stroke="black" points="359.44,-82.5 278.13,-64.5 359.44,-46.5 440.74,-64.5 359.44,-82.5"/>
<text xml:space="preserve" text-anchor="middle" x="359.44" y="-59.45" font-family="Times,serif" font-size="14.00">reg_write_w</text>
</g>
<!-- n10&#45;&gt;c42 -->
<g id="edge4" class="edge">
<title>n10:e&#45;&gt;c42:w</title>
<path fill="none" stroke="black" d="M440.74,-64.5C627.51,-64.5 1956.76,-68.66 2118.81,-161.5 2143.84,-175.84 2129.41,-201.83 2154.81,-215.5 2329.56,-309.58 2843.19,-223.24 3053.05,-220.09"/>
<polygon fill="black" stroke="black" points="3052.84,-223.59 3062.81,-220.01 3052.78,-216.59 3052.84,-223.59"/>
</g>
<!-- x5 -->
<g id="node37" class="node">
<title>x5</title>
<ellipse fill="black" stroke="black" cx="787.24" cy="-42.5" rx="1.8" ry="1.8"/>
</g>
<!-- n10&#45;&gt;x5 -->
<g id="edge5" class="edge">
<title>n10:e&#45;&gt;x5:w</title>
<path fill="none" stroke="black" d="M440.74,-64.5C456.96,-64.5 460.62,-60.26 476.74,-58.5 608.82,-44.1 645.2,-42.58 772.59,-42.5"/>
<polygon fill="black" stroke="black" points="772.45,-46 782.45,-42.5 772.45,-39 772.45,-46"/>
</g>
<!-- n11 -->
<g id="node10" class="node">
<title>n11</title>
<polygon fill="none" stroke="black" points="2945.57,-98.5 2892.49,-80.5 2945.57,-62.5 2998.65,-80.5 2945.57,-98.5"/>
<text xml:space="preserve" text-anchor="middle" x="2945.57" y="-75.45" font-family="Times,serif" font-size="14.00">src2_w</text>
</g>
<!-- x0 -->
<g id="node27" class="node">
<title>x0</title>
<path fill="none" stroke="black" d="M3333.45,-80C3333.45,-80 3371.95,-80 3371.95,-80 3377.95,-80 3383.95,-86 3383.95,-92 3383.95,-92 3383.95,-117 3383.95,-117 3383.95,-123 3377.95,-129 3371.95,-129 3371.95,-129 3333.45,-129 3333.45,-129 3327.45,-129 3321.45,-123 3321.45,-117 3321.45,-117 3321.45,-92 3321.45,-92 3321.45,-86 3327.45,-80 3333.45,-80"/>
<text xml:space="preserve" text-anchor="middle" x="3352.7" y="-111.7" font-family="Times,serif" font-size="14.00">0 &#45;&gt; 7:4</text>
<polyline fill="none" stroke="black" points="3321.45,-104.5 3383.95,-104.5"/>
<text xml:space="preserve" text-anchor="middle" x="3352.7" y="-87.2" font-family="Times,serif" font-size="14.00">3:0 &#45; 3:0</text>
</g>
<!-- n11&#45;&gt;x0 -->
<g id="edge8" class="edge">
<title>n11:e&#45;&gt;x0:w</title>
<path fill="none" stroke="black" stroke-width="3" d="M3000.97,-80.5C3139.17,-80.5 3176.35,-91.62 3309.03,-92.22"/>
<polygon fill="black" stroke="black" stroke-width="3" points="3305.9,-95.72 3315.91,-92.24 3305.91,-88.72 3305.9,-95.72"/>
</g>
<!-- n11&#45;&gt;c42 -->
<g id="edge7" class="edge">
<title>n11:e&#45;&gt;c42:w</title>
<path fill="none" stroke="black" stroke-width="3" d="M3000.97,-80.5C3018.05,-80.5 3020.42,-92.35 3028.32,-107.5 3048.38,-145.96 3022.2,-289.99 3053.79,-314.46"/>
<polygon fill="black" stroke="black" stroke-width="3" points="3049.42,-316.68 3060.02,-316.55 3051.66,-310.04 3049.42,-316.68"/>
</g>
<!-- n12 -->
<g id="node11" class="node">
<title>n12</title>
<polygon fill="none" stroke="black" points="2945.57,-298.5 2892.49,-280.5 2945.57,-262.5 2998.65,-280.5 2945.57,-298.5"/>
<text xml:space="preserve" text-anchor="middle" x="2945.57" y="-275.45" font-family="Times,serif" font-size="14.00">src1_w</text>
</g>
<!-- n12&#45;&gt;c42 -->
<g id="edge10" class="edge">
<title>n12:e&#45;&gt;c42:w</title>
<path fill="none" stroke="black" stroke-width="3" d="M3000.97,-280.5C3036.06,-280.5 3027.65,-329.68 3053.22,-340.44"/>
<polygon fill="black" stroke="black" stroke-width="3" points="3049.39,-343.28 3059.86,-341.67 3050.66,-336.4 3049.39,-343.28"/>
</g>
<!-- n13 -->
<g id="node12" class="node">
<title>n13</title>
<polygon fill="none" stroke="black" points="2945.57,-206.5 2893.21,-188.5 2945.57,-170.5 2997.92,-188.5 2945.57,-206.5"/>
<text xml:space="preserve" text-anchor="middle" x="2945.57" y="-183.45" font-family="Times,serif" font-size="14.00">dest_w</text>
</g>
<!-- n13&#45;&gt;c42 -->
<g id="edge12" class="edge">
<title>n13:e&#45;&gt;c42:w</title>
<path fill="none" stroke="black" stroke-width="3" d="M3000.23,-188.5C3041.67,-188.5 3023.08,-254.61 3053.27,-267.01"/>
<polygon fill="black" stroke="black" stroke-width="3" points="3049.39,-269.87 3059.85,-268.2 3050.63,-262.98 3049.39,-269.87"/>
</g>
<!-- x6 -->
<g id="node38" class="node">
<title>x6</title>
<ellipse fill="black" stroke="black" cx="3352.7" cy="-187.5" rx="1.8" ry="1.8"/>
</g>
<!-- n13&#45;&gt;x6 -->
<g id="edge13" class="edge">
<title>n13:e&#45;&gt;x6:w</title>
<path fill="none" stroke="black" stroke-width="3" d="M3000.23,-188.5C3151.63,-188.5 3192.26,-187.55 3338.26,-187.5"/>
<polygon fill="black" stroke="black" stroke-width="3" points="3334.88,-191 3344.88,-187.5 3334.88,-184 3334.88,-191"/>
</g>
<!-- n14 -->
<g id="node13" class="node">
<title>n14</title>
<polygon fill="none" stroke="black" points="2945.57,-152.5 2876.56,-134.5 2945.57,-116.5 3014.57,-134.5 2945.57,-152.5"/>
<text xml:space="preserve" text-anchor="middle" x="2945.57" y="-129.45" font-family="Times,serif" font-size="14.00">opcode_w</text>
</g>
<!-- c50 -->
<g id="node29" class="node">
<title>c50</title>
<polygon fill="none" stroke="black" points="11.88,-226 11.88,-373 242.13,-373 242.13,-226 11.88,-226"/>
<text xml:space="preserve" text-anchor="middle" x="39.38" y="-331.2" font-family="Times,serif" font-size="14.00">opcode</text>
<polyline fill="none" stroke="black" points="11.88,-299.5 66.88,-299.5"/>
<text xml:space="preserve" text-anchor="middle" x="39.38" y="-257.7" font-family="Times,serif" font-size="14.00">pc</text>
<polyline fill="none" stroke="black" points="66.88,-226 66.88,-373"/>
<text xml:space="preserve" text-anchor="middle" x="114.63" y="-302.7" font-family="Times,serif" font-size="14.00">u_control_unit</text>
<text xml:space="preserve" text-anchor="middle" x="114.63" y="-286.2" font-family="Times,serif" font-size="14.00">control_unit</text>
<polyline fill="none" stroke="black" points="162.38,-226 162.38,-373"/>
<text xml:space="preserve" text-anchor="middle" x="202.25" y="-355.7" font-family="Times,serif" font-size="14.00">alu_op</text>
<polyline fill="none" stroke="black" points="162.38,-348.5 242.13,-348.5"/>
<text xml:space="preserve" text-anchor="middle" x="202.25" y="-331.2" font-family="Times,serif" font-size="14.00">halt</text>
<polyline fill="none" stroke="black" points="162.38,-324 242.13,-324"/>
<text xml:space="preserve" text-anchor="middle" x="202.25" y="-306.7" font-family="Times,serif" font-size="14.00">imm_select</text>
<polyline fill="none" stroke="black" points="162.38,-299.5 242.13,-299.5"/>
<text xml:space="preserve" text-anchor="middle" x="202.25" y="-282.2" font-family="Times,serif" font-size="14.00">pc_next</text>
<polyline fill="none" stroke="black" points="162.38,-275 242.13,-275"/>
<text xml:space="preserve" text-anchor="middle" x="202.25" y="-257.7" font-family="Times,serif" font-size="14.00">pc_write</text>
<polyline fill="none" stroke="black" points="162.38,-250.5 242.13,-250.5"/>
<text xml:space="preserve" text-anchor="middle" x="202.25" y="-233.2" font-family="Times,serif" font-size="14.00">reg_write</text>
</g>
<!-- n14&#45;&gt;c50 -->
<g id="edge15" class="edge">
<title>n14:e&#45;&gt;c50:w</title>
<path fill="none" stroke="black" stroke-width="3" d="M3017.29,-134.5C3025.3,-134.5 3022.11,-146.99 3016.29,-152.5 3005.01,-163.17 2890.75,-158.8 2876.56,-152.5 2846.44,-139.13 2856.94,-110.87 2826.81,-97.5 2758.56,-67.21 2212.76,-50.42 2154.81,-97.5 2094.19,-146.74 2177.56,-218.04 2118.81,-269.5 1978.24,-392.64 627.55,-378.1 440.74,-383.5 250.17,-389.01 145.97,-509.04 11.88,-373.5 3.87,-365.41 -1.43,-350.83 1.43,-342.52"/>
<polygon fill="black" stroke="black" stroke-width="3" points="0.7,-347.2 7.09,-338.76 -3.17,-341.37 0.7,-347.2"/>
</g>
<!-- n15 -->
<g id="node14" class="node">
<title>n15</title>
<polygon fill="none" stroke="black" points="2025.92,-260.5 1938.82,-242.5 2025.92,-224.5 2113.02,-242.5 2025.92,-260.5"/>
<text xml:space="preserve" text-anchor="middle" x="2025.92" y="-237.45" font-family="Times,serif" font-size="14.00">instruction_w</text>
</g>
<!-- c55 -->
<g id="node30" class="node">
<title>c55</title>
<polygon fill="none" stroke="black" points="2154.81,-107.5 2154.81,-205.5 2826.81,-205.5 2826.81,-107.5 2154.81,-107.5"/>
<text xml:space="preserve" text-anchor="middle" x="2191.69" y="-151.7" font-family="Times,serif" font-size="14.00">instruction</text>
<polyline fill="none" stroke="black" points="2228.56,-107.5 2228.56,-205.5"/>
<text xml:space="preserve" text-anchor="middle" x="2500.19" y="-161.57" font-family="Times,serif" font-size="14.00">u_decoder</text>
<text xml:space="preserve" text-anchor="middle" x="2500.19" y="-145.07" font-family="Times,serif" font-size="14.00">$paramod╲instruction_decoder╲INSTR_WIDTH=s32&#39;00000000000000000000000000010000</text>
<polyline fill="none" stroke="black" points="2771.81,-107.5 2771.81,-205.5"/>
<text xml:space="preserve" text-anchor="middle" x="2799.31" y="-188.2" font-family="Times,serif" font-size="14.00">dest</text>
<polyline fill="none" stroke="black" points="2771.81,-181 2826.81,-181"/>
<text xml:space="preserve" text-anchor="middle" x="2799.31" y="-163.7" font-family="Times,serif" font-size="14.00">opcode</text>
<polyline fill="none" stroke="black" points="2771.81,-156.5 2826.81,-156.5"/>
<text xml:space="preserve" text-anchor="middle" x="2799.31" y="-139.2" font-family="Times,serif" font-size="14.00">src1</text>
<polyline fill="none" stroke="black" points="2771.81,-132 2826.81,-132"/>
<text xml:space="preserve" text-anchor="middle" x="2799.31" y="-114.7" font-family="Times,serif" font-size="14.00">src2</text>
</g>
<!-- n15&#45;&gt;c55 -->
<g id="edge17" class="edge">
<title>n15:e&#45;&gt;c55:w</title>
<path fill="none" stroke="black" stroke-width="3" d="M2116.19,-242.5C2153.42,-242.5 2121.81,-174.48 2143.98,-159.6"/>
<polygon fill="black" stroke="black" stroke-width="3" points="2141.64,-163.84 2150.42,-157.91 2139.86,-157.07 2141.64,-163.84"/>
</g>
<!-- n16 -->
<g id="node15" class="node">
<title>n16</title>
<polygon fill="none" stroke="black" points="359.44,-266.5 282.47,-248.5 359.44,-230.5 436.4,-248.5 359.44,-266.5"/>
<text xml:space="preserve" text-anchor="middle" x="359.44" y="-243.45" font-family="Times,serif" font-size="14.00">pc_write_w</text>
</g>
<!-- c58 -->
<g id="node32" class="node">
<title>c58</title>
<polygon fill="none" stroke="black" points="476.74,-237.5 476.74,-335.5 1097.74,-335.5 1097.74,-237.5 476.74,-237.5"/>
<text xml:space="preserve" text-anchor="middle" x="508.37" y="-318.2" font-family="Times,serif" font-size="14.00">clk</text>
<polyline fill="none" stroke="black" points="476.74,-311 539.99,-311"/>
<text xml:space="preserve" text-anchor="middle" x="508.37" y="-293.7" font-family="Times,serif" font-size="14.00">pc_next</text>
<polyline fill="none" stroke="black" points="476.74,-286.5 539.99,-286.5"/>
<text xml:space="preserve" text-anchor="middle" x="508.37" y="-269.2" font-family="Times,serif" font-size="14.00">pc_write</text>
<polyline fill="none" stroke="black" points="476.74,-262 539.99,-262"/>
<text xml:space="preserve" text-anchor="middle" x="508.37" y="-244.7" font-family="Times,serif" font-size="14.00">reset</text>
<polyline fill="none" stroke="black" points="539.99,-237.5 539.99,-335.5"/>
<text xml:space="preserve" text-anchor="middle" x="804.49" y="-291.57" font-family="Times,serif" font-size="14.00">u_pc</text>
<text xml:space="preserve" text-anchor="middle" x="804.49" y="-275.07" font-family="Times,serif" font-size="14.00">$paramod╲program_counter╲ADDR_WIDTH=s32&#39;00000000000000000000000000001000</text>
<polyline fill="none" stroke="black" points="1068.99,-237.5 1068.99,-335.5"/>
<text xml:space="preserve" text-anchor="middle" x="1083.37" y="-281.7" font-family="Times,serif" font-size="14.00">pc</text>
</g>
<!-- n16&#45;&gt;c58 -->
<g id="edge19" class="edge">
<title>n16:e&#45;&gt;c58:w</title>
<path fill="none" stroke="black" d="M439.32,-248.5C454.93,-248.5 456.7,-263.9 466.05,-270.88"/>
<polygon fill="black" stroke="black" points="464.71,-274.13 475.3,-273.8 466.81,-267.46 464.71,-274.13"/>
</g>
<!-- n17 -->
<g id="node16" class="node">
<title>n17</title>
<polygon fill="none" stroke="black" points="359.44,-320.5 286.81,-302.5 359.44,-284.5 432.06,-302.5 359.44,-320.5"/>
<text xml:space="preserve" text-anchor="middle" x="359.44" y="-297.45" font-family="Times,serif" font-size="14.00">pc_next_w</text>
</g>
<!-- n17&#45;&gt;c58 -->
<g id="edge21" class="edge">
<title>n17:e&#45;&gt;c58:w</title>
<path fill="none" stroke="black" stroke-width="3" d="M434.87,-302.5C449.03,-302.5 455.04,-300.35 465.26,-299.3"/>
<polygon fill="black" stroke="black" stroke-width="3" points="462.39,-302.95 472.21,-298.97 462.05,-295.95 462.39,-302.95"/>
</g>
<!-- n18 -->
<g id="node17" class="node">
<title>n18</title>
<polygon fill="none" stroke="black" points="1201.51,-230.5 1157.84,-212.5 1201.51,-194.5 1245.18,-212.5 1201.51,-230.5"/>
<text xml:space="preserve" text-anchor="middle" x="1201.51" y="-207.45" font-family="Times,serif" font-size="14.00">pc_w</text>
</g>
<!-- n18&#45;&gt;c50 -->
<g id="edge23" class="edge">
<title>n18:e&#45;&gt;c50:w</title>
<path fill="none" stroke="black" stroke-width="3" d="M1247.04,-212.5C1255.06,-212.5 1251.87,-224.99 1246.04,-230.5 1217.57,-257.44 1195.63,-240.95 1157.84,-230.5 1127.83,-222.2 1127.58,-203.41 1097.74,-194.5 899.55,-135.28 503.69,-143.22 278.13,-167.5 157.72,-180.46 89.12,-132.22 11.88,-225.5 4.78,-234.07 -0.71,-247.94 1.48,-256.12"/>
<polygon fill="black" stroke="black" stroke-width="3" points="-3.02,-257.23 7.17,-260.13 1.02,-251.51 -3.02,-257.23"/>
</g>
<!-- c57 -->
<g id="node31" class="node">
<title>c57</title>
<polygon fill="none" stroke="black" points="1305.28,-213.12 1305.28,-257.88 1897.03,-257.88 1897.03,-213.12 1305.28,-213.12"/>
<text xml:space="preserve" text-anchor="middle" x="1333.53" y="-230.57" font-family="Times,serif" font-size="14.00">address</text>
<polyline fill="none" stroke="black" points="1361.78,-213.12 1361.78,-257.88"/>
<text xml:space="preserve" text-anchor="middle" x="1592.53" y="-240.57" font-family="Times,serif" font-size="14.00">u_imem</text>
<text xml:space="preserve" text-anchor="middle" x="1592.53" y="-224.07" font-family="Times,serif" font-size="14.00">$paramod$41b5ca74f47e7a33e8f0244a1d284342a6461bce╲instruction_memory</text>
<polyline fill="none" stroke="black" points="1823.28,-213.12 1823.28,-257.88"/>
<text xml:space="preserve" text-anchor="middle" x="1860.16" y="-230.57" font-family="Times,serif" font-size="14.00">instruction</text>
</g>
<!-- n18&#45;&gt;c57 -->
<g id="edge24" class="edge">
<title>n18:e&#45;&gt;c57:w</title>
<path fill="none" stroke="black" stroke-width="3" d="M1247.04,-212.5C1270.54,-212.5 1276.02,-228.96 1293.89,-234.11"/>
<polygon fill="black" stroke="black" stroke-width="3" points="1290.41,-237.17 1300.78,-235.03 1291.33,-230.24 1290.41,-237.17"/>
</g>
<!-- x2 -->
<g id="node34" class="node">
<title>x2</title>
<ellipse fill="black" stroke="black" cx="1601.16" cy="-189.5" rx="1.8" ry="1.8"/>
</g>
<!-- n18&#45;&gt;x2 -->
<g id="edge25" class="edge">
<title>n18:e&#45;&gt;x2:w</title>
<path fill="none" stroke="black" stroke-width="3" d="M1247.04,-212.5C1273.24,-212.5 1279.23,-206.13 1305.28,-203.5 1431.02,-190.81 1465.68,-189.56 1586.68,-189.5"/>
<polygon fill="black" stroke="black" stroke-width="3" points="1583.34,-193 1593.34,-189.5 1583.34,-186 1583.34,-193"/>
</g>
<!-- n19 -->
<g id="node18" class="node">
<title>n19</title>
<polygon fill="none" stroke="black" points="3811.23,-180.04 3811.23,-194.96 3784.51,-205.5 3746.72,-205.5 3720.01,-194.96 3720.01,-180.04 3746.72,-169.5 3784.51,-169.5 3811.23,-180.04"/>
<text xml:space="preserve" text-anchor="middle" x="3765.62" y="-182.45" font-family="Times,serif" font-size="14.00">dest_out</text>
</g>
<!-- n20 -->
<g id="node19" class="node">
<title>n20</title>
<polygon fill="none" stroke="black" points="1269.28,-35.04 1269.28,-49.96 1229.59,-60.5 1173.44,-60.5 1133.74,-49.96 1133.74,-35.04 1173.44,-24.5 1229.59,-24.5 1269.28,-35.04"/>
<text xml:space="preserve" text-anchor="middle" x="1201.51" y="-37.45" font-family="Times,serif" font-size="14.00">reg_write_out</text>
</g>
<!-- n21 -->
<g id="node20" class="node">
<title>n21</title>
<polygon fill="none" stroke="black" points="3834.49,-495.04 3834.49,-509.96 3794.15,-520.5 3737.09,-520.5 3696.74,-509.96 3696.74,-495.04 3737.09,-484.5 3794.15,-484.5 3834.49,-495.04"/>
<text xml:space="preserve" text-anchor="middle" x="3765.62" y="-497.45" font-family="Times,serif" font-size="14.00">alu_result_out</text>
</g>
<!-- n22 -->
<g id="node21" class="node">
<title>n22</title>
<polygon fill="none" stroke="black" points="1246.02,-441.04 1246.02,-455.96 1219.95,-466.5 1183.08,-466.5 1157.01,-455.96 1157.01,-441.04 1183.08,-430.5 1219.95,-430.5 1246.02,-441.04"/>
<text xml:space="preserve" text-anchor="middle" x="1201.51" y="-443.45" font-family="Times,serif" font-size="14.00">halt_out</text>
</g>
<!-- n23 -->
<g id="node22" class="node">
<title>n23</title>
<polygon fill="none" stroke="black" points="2064.89,-181.04 2064.89,-195.96 2042.06,-206.5 2009.78,-206.5 1986.96,-195.96 1986.96,-181.04 2009.78,-170.5 2042.06,-170.5 2064.89,-181.04"/>
<text xml:space="preserve" text-anchor="middle" x="2025.92" y="-183.45" font-family="Times,serif" font-size="14.00">pc_out</text>
</g>
<!-- n24 -->
<g id="node23" class="node">
<title>n24</title>
<polygon fill="none" stroke="black" points="390.09,-187.04 390.09,-201.96 372.13,-212.5 346.74,-212.5 328.78,-201.96 328.78,-187.04 346.74,-176.5 372.13,-176.5 390.09,-187.04"/>
<text xml:space="preserve" text-anchor="middle" x="359.44" y="-189.45" font-family="Times,serif" font-size="14.00">reset</text>
</g>
<!-- n24&#45;&gt;c42 -->
<g id="edge32" class="edge">
<title>n24:e&#45;&gt;c42:w</title>
<path fill="none" stroke="black" d="M391.38,-194.5C705.68,-194.5 788.09,-174.61 1097.74,-228.5 1114.23,-231.37 1117.45,-235.7 1133.74,-239.5 1208.97,-257.05 1228.37,-260.27 1305.28,-267.5 1994.71,-332.32 2170.41,-298.61 2862.81,-307.5 2936.36,-308.44 2956.02,-321.06 3028.32,-307.5 3040.58,-305.2 3044.97,-298.85 3053.03,-295.55"/>
<polygon fill="black" stroke="black" points="3053.62,-299 3062.83,-293.77 3052.37,-292.12 3053.62,-299"/>
</g>
<!-- n24&#45;&gt;c58 -->
<g id="edge33" class="edge">
<title>n24:e&#45;&gt;c58:w</title>
<path fill="none" stroke="black" d="M391.38,-194.5C416.39,-194.5 419.87,-207.73 440.74,-221.5 453.88,-230.16 456.06,-242.32 465.79,-247.39"/>
<polygon fill="black" stroke="black" points="464.75,-250.75 475.26,-249.43 466.23,-243.9 464.75,-250.75"/>
</g>
<!-- n25 -->
<g id="node24" class="node">
<title>n25</title>
<polygon fill="none" stroke="black" points="386.44,-349.04 386.44,-363.96 370.62,-374.5 348.25,-374.5 332.44,-363.96 332.44,-349.04 348.25,-338.5 370.62,-338.5 386.44,-349.04"/>
<text xml:space="preserve" text-anchor="middle" x="359.44" y="-351.45" font-family="Times,serif" font-size="14.00">clk</text>
</g>
<!-- n25&#45;&gt;c42 -->
<g id="edge34" class="edge">
<title>n25:e&#45;&gt;c42:w</title>
<path fill="none" stroke="black" d="M387.69,-356.5C748.96,-356.5 839.24,-364.5 1200.51,-364.5 1200.51,-364.5 1200.51,-364.5 2491.81,-364.5 2742.41,-364.5 2807.9,-366.92 3052.9,-367"/>
<polygon fill="black" stroke="black" points="3052.81,-370.5 3062.81,-367 3052.81,-363.5 3052.81,-370.5"/>
</g>
<!-- n25&#45;&gt;c58 -->
<g id="edge35" class="edge">
<title>n25:e&#45;&gt;c58:w</title>
<path fill="none" stroke="black" d="M387.69,-356.5C425.81,-356.5 433.25,-329.43 465.37,-324.14"/>
<polygon fill="black" stroke="black" points="465.54,-327.64 475.24,-323.37 464.99,-320.66 465.54,-327.64"/>
</g>
<!-- c31&#45;&gt;n2 -->
<g id="edge27" class="edge">
<title>c31:e&#45;&gt;n2:w</title>
<path fill="none" stroke="black" d="M2769.31,-466.5C2815.05,-466.5 2816.67,-419.31 2855.16,-411.57"/>
<polygon fill="black" stroke="black" points="2855.29,-415.07 2864.92,-410.64 2854.63,-408.1 2855.29,-415.07"/>
</g>
<!-- c31&#45;&gt;n3 -->
<g id="edge36" class="edge">
<title>c31:e&#45;&gt;n3:w</title>
<path fill="none" stroke="black" stroke-width="3" d="M2769.31,-503C2806.81,-503 2818.93,-502.59 2851.47,-502.51"/>
<polygon fill="black" stroke="black" stroke-width="3" points="2848.27,-506.02 2858.27,-502.51 2848.27,-499.02 2848.27,-506.02"/>
</g>
<!-- x1 -->
<g id="node33" class="node">
<title>x1</title>
<ellipse fill="black" stroke="black" cx="4026.96" cy="-272.5" rx="1.8" ry="1.8"/>
</g>
<!-- c34&#45;&gt;x1 -->
<g id="edge2" class="edge">
<title>c34:e&#45;&gt;x1:w</title>
<path fill="none" stroke="black" stroke-width="3" d="M3989.16,-169.5C4033.11,-169.5 3987.14,-254.09 4014.23,-269.95"/>
<polygon fill="black" stroke="black" stroke-width="3" points="4010.21,-272.61 4020.74,-271.47 4011.79,-265.79 4010.21,-272.61"/>
</g>
<!-- x0&#45;&gt;c34 -->
<g id="edge1" class="edge">
<title>x0:e&#45;&gt;c34:w</title>
<path fill="none" stroke="black" stroke-width="3" d="M3397.97,-104.52C3597.24,-105.27 3651.94,-123.31 3854.16,-160.5 3865.06,-162.5 3870.12,-165.88 3877.27,-167.88"/>
<polygon fill="none" stroke="black" stroke-width="3" points="3399.65,-104.53 3393.64,-108.52 3387.65,-104.5 3393.66,-100.52 3399.65,-104.53"/>
<polygon fill="none" stroke="black" stroke-width="3" points="3875.57,-167.66 3882.03,-164.44 3887.48,-169.16 3881.03,-172.38 3875.57,-167.66"/>
</g>
<!-- c42&#45;&gt;n5 -->
<g id="edge41" class="edge">
<title>c42:e&#45;&gt;n5:w</title>
<path fill="none" stroke="black" stroke-width="3" d="M3641.07,-251C3652.66,-251 3657.86,-248.68 3665.85,-247.37"/>
<polygon fill="black" stroke="black" stroke-width="3" points="3662.84,-251.11 3672.54,-246.85 3662.3,-244.13 3662.84,-251.11"/>
</g>
<!-- c42&#45;&gt;n6 -->
<g id="edge43" class="edge">
<title>c42:e&#45;&gt;n6:w</title>
<path fill="none" stroke="black" stroke-width="3" d="M3641.07,-336.5C3735.89,-336.5 3591.45,-538 3665.7,-555.32"/>
<polygon fill="black" stroke="black" stroke-width="3" points="3662.25,-558.47 3672.55,-556.03 3662.97,-551.51 3662.25,-558.47"/>
</g>
<!-- c50&#45;&gt;n7 -->
<g id="edge45" class="edge">
<title>c50:e&#45;&gt;n7:w</title>
<path fill="none" stroke="black" d="M242.13,-311.75C308.21,-311.75 227.33,-209.76 278.13,-167.5 346.94,-110.26 1757.55,-67.95 1921.9,-65.6"/>
<polygon fill="black" stroke="black" points="1921.55,-69.11 1931.52,-65.51 1921.49,-62.11 1921.55,-69.11"/>
</g>
<!-- c50&#45;&gt;n8 -->
<g id="edge47" class="edge">
<title>c50:e&#45;&gt;n8:w</title>
<path fill="none" stroke="black" stroke-width="3" d="M242.13,-360.75C295.58,-360.75 235.17,-443.69 278.13,-475.5 722.82,-804.79 971.11,-489.87 1520.28,-485.54"/>
<polygon fill="black" stroke="black" stroke-width="3" points="1517.14,-489.06 1527.12,-485.52 1517.11,-482.06 1517.14,-489.06"/>
</g>
<!-- c50&#45;&gt;n9 -->
<g id="edge49" class="edge">
<title>c50:e&#45;&gt;n9:w</title>
<path fill="none" stroke="black" d="M242.13,-336.25C295.21,-336.25 255.91,-432.05 294.92,-446.65"/>
<polygon fill="black" stroke="black" points="294.33,-450.1 304.77,-448.26 295.46,-443.19 294.33,-450.1"/>
</g>
<!-- c50&#45;&gt;n10 -->
<g id="edge3" class="edge">
<title>c50:e&#45;&gt;n10:w</title>
<path fill="none" stroke="black" d="M242.13,-238.25C316.68,-238.25 211.98,-82.98 266.92,-66"/>
<polygon fill="black" stroke="black" points="267.18,-69.5 276.63,-64.7 266.25,-62.56 267.18,-69.5"/>
</g>
<!-- c50&#45;&gt;n16 -->
<g id="edge18" class="edge">
<title>c50:e&#45;&gt;n16:w</title>
<path fill="none" stroke="black" d="M242.13,-262.75C255.34,-262.75 259.75,-254.9 268.43,-250.85"/>
<polygon fill="black" stroke="black" points="269.01,-254.31 278.07,-248.81 267.57,-247.46 269.01,-254.31"/>
</g>
<!-- c50&#45;&gt;n17 -->
<g id="edge20" class="edge">
<title>c50:e&#45;&gt;n17:w</title>
<path fill="none" stroke="black" stroke-width="3" d="M242.13,-287.25C257.45,-287.25 262.27,-296.37 272.84,-300.51"/>
<polygon fill="black" stroke="black" stroke-width="3" points="269.08,-303.39 279.54,-301.7 270.31,-296.5 269.08,-303.39"/>
</g>
<!-- c55&#45;&gt;n11 -->
<g id="edge6" class="edge">
<title>c55:e&#45;&gt;n11:w</title>
<path fill="none" stroke="black" stroke-width="3" d="M2826.81,-119.75C2855.66,-119.75 2857.19,-89.97 2879,-82.29"/>
<polygon fill="black" stroke="black" stroke-width="3" points="2876.36,-86.26 2885.68,-81.22 2875.25,-79.34 2876.36,-86.26"/>
</g>
<!-- c55&#45;&gt;n12 -->
<g id="edge9" class="edge">
<title>c55:e&#45;&gt;n12:w</title>
<path fill="none" stroke="black" stroke-width="3" d="M2826.81,-144.25C2889.29,-144.25 2831.86,-263.5 2878.89,-278.87"/>
<polygon fill="black" stroke="black" stroke-width="3" points="2875.27,-281.89 2885.67,-279.85 2876.27,-274.96 2875.27,-281.89"/>
</g>
<!-- c55&#45;&gt;n13 -->
<g id="edge11" class="edge">
<title>c55:e&#45;&gt;n13:w</title>
<path fill="none" stroke="black" stroke-width="3" d="M2826.81,-193.25C2851.14,-193.25 2859.8,-189.81 2879.47,-188.78"/>
<polygon fill="black" stroke="black" stroke-width="3" points="2876.46,-192.36 2886.37,-188.61 2876.28,-185.36 2876.46,-192.36"/>
</g>
<!-- c55&#45;&gt;n14 -->
<g id="edge14" class="edge">
<title>c55:e&#45;&gt;n14:w</title>
<path fill="none" stroke="black" stroke-width="3" d="M2826.81,-168.75C2848.23,-168.75 2848.69,-145.26 2862.91,-137.19"/>
<polygon fill="black" stroke="black" stroke-width="3" points="2860.56,-141.37 2869.44,-135.58 2858.89,-134.57 2860.56,-141.37"/>
</g>
<!-- c57&#45;&gt;n15 -->
<g id="edge16" class="edge">
<title>c57:e&#45;&gt;n15:w</title>
<path fill="none" stroke="black" stroke-width="3" d="M1897.03,-235.62C1909.97,-235.62 1915.38,-239.41 1924.43,-241.36"/>
<polygon fill="black" stroke="black" stroke-width="3" points="1920.84,-244.52 1931.14,-242.04 1921.54,-237.55 1920.84,-244.52"/>
</g>
<!-- c58&#45;&gt;n18 -->
<g id="edge22" class="edge">
<title>c58:e&#45;&gt;n18:w</title>
<path fill="none" stroke="black" stroke-width="3" d="M1097.74,-286.75C1135.26,-286.75 1118.7,-227.34 1144.81,-214.8"/>
<polygon fill="black" stroke="black" stroke-width="3" points="1142.45,-218.86 1151.54,-213.42 1141.04,-212.01 1142.45,-218.86"/>
</g>
<!-- x1&#45;&gt;n4 -->
<g id="edge39" class="edge">
<title>x1:e&#45;&gt;n4:w</title>
<path fill="none" stroke="black" stroke-width="3" d="M4028.76,-272.5C4041.49,-272.5 4045.59,-280.59 4053.74,-284.89"/>
<polygon fill="black" stroke="black" stroke-width="3" points="4049.81,-287.55 4060.34,-286.45 4051.42,-280.74 4049.81,-287.55"/>
</g>
<!-- x2&#45;&gt;n23 -->
<g id="edge31" class="edge">
<title>x2:e&#45;&gt;n23:w</title>
<path fill="none" stroke="black" stroke-width="3" d="M1604.44,-189.5C1770.04,-189.5 1814.22,-188.54 1974.37,-188.5"/>
<polygon fill="black" stroke="black" stroke-width="3" points="1971.05,-192 1981.05,-188.5 1971.05,-185 1971.05,-192"/>
</g>
<!-- x3&#45;&gt;n22 -->
<g id="edge30" class="edge">
<title>x3:e&#45;&gt;n22:w</title>
<path fill="none" stroke="black" d="M790.52,-448.5C948.97,-448.5 991.37,-448.5 1144.38,-448.5"/>
<polygon fill="black" stroke="black" points="1144.08,-452 1154.08,-448.5 1144.08,-445 1144.08,-452"/>
</g>
<!-- x4&#45;&gt;n21 -->
<g id="edge29" class="edge">
<title>x4:e&#45;&gt;n21:w</title>
<path fill="none" stroke="black" stroke-width="3" d="M3355.97,-502.5C3503.02,-502.5 3542.58,-502.5 3684.17,-502.5"/>
<polygon fill="black" stroke="black" stroke-width="3" points="3680.91,-506 3690.91,-502.5 3680.91,-499 3680.91,-506"/>
</g>
<!-- x5&#45;&gt;n20 -->
<g id="edge28" class="edge">
<title>x5:e&#45;&gt;n20:w</title>
<path fill="none" stroke="black" d="M790.52,-42.5C939.19,-42.5 979.19,-42.5 1122.34,-42.5"/>
<polygon fill="black" stroke="black" points="1122.23,-46 1132.23,-42.5 1122.23,-39 1122.23,-46"/>
</g>
<!-- x6&#45;&gt;n19 -->
<g id="edge26" class="edge">
<title>x6:e&#45;&gt;n19:w</title>
<path fill="none" stroke="black" stroke-width="3" d="M3355.97,-187.5C3513.35,-187.5 3555.47,-187.5 3707.44,-187.5"/>
<polygon fill="black" stroke="black" stroke-width="3" points="3704.04,-191 3714.04,-187.5 3704.04,-184 3704.04,-191"/>
</g>
</g>
</svg>
